# xmcd CD database file
#
# Track frame offsets:
#	150
#	12325
#	24157
#	43890
#	60577
#	73945
#	88345
#	117435
#	138112
#	169252
#	196772
#	213772
#
# Disc length: 3075 seconds
#
# Revision: 0
# Processed by: cddbd v1.5.1PL0 Copyright (c) Steve Scherf et al.
# Submitted via: CDex 1.51
#
DISCID=a50c010c
DTITLE=CRAZE - Nil to Hero disc1
DYEAR=2005
DGENRE=ロック (日本)
TTITLE0=ARMY -Peace db mix-
TTITLE1=I don't like BACKSTREETBOYS
TTITLE2=I LOVE YOU
TTITLE3=Assault Syndrome
TTITLE4=アヂト
TTITLE5=ALONE
TTITLE6=with you
TTITLE7=OWN WAY OWN LIFE
TTITLE8=傷
TTITLE9=君に逢いたい
TTITLE10=交錯
TTITLE11=GOLDEN FLOWERPEOPLE
EXTD=YEAR: 2005/09/07
EXTT0=
EXTT1=
EXTT2=
EXTT3=
EXTT4=
EXTT5=
EXTT6=
EXTT7=
EXTT8=
EXTT9=
EXTT10=
EXTT11=
PLAYORDER=
